<svg xmlns="http://www.w3.org/2000/svg" xmlns:xlink="http://www.w3.org/1999/xlink" width="64" height="64" preserveAspectRatio="xMidYMid meet" viewBox="0 0 64 64" style="-ms-transform: rotate(360deg); -webkit-transform: rotate(360deg); transform: rotate(360deg);"><switch><g><path fill="#ec1c24" d="M64 43c0 6.075-3.373 11-10 11H10C3.373 54 0 49.075 0 43V21c0-6.075 3.373-11 10-11h44c6.627 0 10 4.925 10 11v22"/><g fill="#f9cb38"><path d="M12.971 16.656L15.11 21l4.795.695l-3.467 3.375l.817 4.78l-4.284-2.255l-4.285 2.255l.818-4.78l-3.464-3.375L10.827 21z"/><path d="M20.507 12.994l.593 1.205l1.334.193l-.963.939l.225 1.325l-1.189-.626l-1.188.626l.225-1.325l-.962-.939l1.331-.193z"/><path d="M24.358 17.328l.594 1.204l1.328.194l-.959.941l.226 1.323l-1.189-.625l-1.188.625l.225-1.323l-.961-.941l1.329-.194z"/><path d="M24.358 24.284l.594 1.207l1.328.193l-.959.939l.226 1.325l-1.189-.624l-1.188.624l.225-1.325l-.961-.939l1.329-.193z"/><path d="M20.507 29.17l.593 1.205l1.334.192l-.963.938l.225 1.327l-1.189-.622l-1.188.622l.225-1.327l-.962-.938l1.331-.192z"/></g></g></switch><rect x="0" y="0" width="64" height="64" fill="rgba(0, 0, 0, 0)" /></svg>