<svg xmlns="http://www.w3.org/2000/svg" width="516.156" height="216.751" viewBox="0 0 136.566 57.349">
  <g transform="translate(-33.842 -87.932)">
    <path d="M104.51 113.77v16.405l14.023-7.938v-16.404zM104.51 113.77v16.405l-14.022-7.938v-16.404zM104.51 113.77l-14.022-7.937 13.652-8.073 14.393 8.073z" style="font-variation-settings:normal" fill="none" stroke="#face74" stroke-width="1.5" stroke-linecap="round" stroke-linejoin="round"/>
    <circle r="1.894" cy="109.33" cx="104.466" fill="#face74"/>
    <circle cx="107.132" cy="104.419" r="2.456" fill="#face74"/>
    <circle r="3.344" cy="101.893" cx="99.508" fill="#fff"/>
    <circle cx="111.435" cy="95.672" r="3.718" fill="#fff"/>
    <circle r="4.42" cy="92.352" cx="93.334" fill="#face74"/>
    <path d="M34.925 133.252l6.35 5.16-6.35 5.423" style="font-variation-settings:normal" fill="none" stroke="#fff" stroke-width="2.165" stroke-linecap="round" stroke-linejoin="round"/>
    <path style="font-variation-settings:normal" d="M47.096 133.252l-6.35 5.16 6.35 5.423" fill="none" stroke="#face74" stroke-width="2.165" stroke-linecap="round" stroke-linejoin="round"/>
    <path d="M50.935 136.434c.094-1.065-.16-2.744 1.964-2.712l7.952-.047c1.916.409 2.067 1.524 2.151 2.666v5.192c-.128.973-.179 2.013-1.87 2.385h-8.14c-1.248-.08-2.052-.719-2.057-2.292zM66.28 136.434c.095-1.065-.16-2.744 1.965-2.712l7.951-.047c1.917.409 2.068 1.524 2.152 2.666v5.192c-.128.973-.179 2.013-1.87 2.385h-8.14c-1.248-.08-2.052-.719-2.057-2.292zM81.992 143.918l.093-10.664 10.57.14c1.037.146 1.583.728 1.497 1.871l.047 2.76c-.116.63.428 1.693-1.216 1.613l-10.874-.047M102.852 133.792l-4.186.023c-1.256.134-1.178.839-1.216 1.52l-.024 2.175c.041 1.57 1.01 1.286 1.825 1.31l8.091.187c1.587.157 1.891.956 1.871 1.918l-.07 1.87c.04 1.5-1.355 1.024-1.871 1.1l-10.033.023M130.167 133.815l-10.617-.093c-1.233-.017-1.784.595-1.871 1.637l-.047 7.062c.064 1.407.943 1.366 1.777 1.403l10.898.094M132.82 136.596v6.152c.614.883 1.162 1.118 1.688 1.124l6.78.034c1.147.056 1.538-.176 1.554-1.158l.066-5.722M145.784 134.75l.08 9.168 9.087-.12c.891-.126 1.36-.626 1.287-1.609l.04-2.372c-.1-.542.368-1.456-1.046-1.387l-9.348.04M159.446 139.99h9.822l-.046-1.919c-.123-.825-.88-1.197-1.871-1.403l-6.08.047c-1.012.19-1.656.684-1.918 1.497v4.817c.492.778 1.34.844 2.198.889h7.858" style="font-variation-settings:normal" fill="none" stroke="#fff" stroke-width="2" stroke-linecap="round" stroke-linejoin="round"/>
  </g>
</svg>
